<svg width="55" height="55" viewBox="0 0 85 85" fill="none" xmlns="http://www.w3.org/2000/svg">
<g clip-path="url(#clip0_295_120)">
<rect width="60" height="60" transform="translate(0 42.4263) rotate(-45)" fill="black"/>
<path d="M21.213 42.4263L38.4487 25.1905C38.8003 24.8389 38.9979 24.362 38.9979 23.8647C38.9979 23.3674 38.8003 22.8905 38.4487 22.5389C38.0971 22.1873 37.6202 21.9897 37.1229 21.9897C36.6256 21.9897 36.1487 22.1873 35.797 22.5389L17.2355 41.1004C16.8839 41.4521 16.6863 41.929 16.6863 42.4263C16.6863 42.9236 16.8839 43.4005 17.2355 43.7521L35.797 62.3137C36.1487 62.6653 36.6256 62.8628 37.1229 62.8628C37.6202 62.8628 38.0971 62.6653 38.4487 62.3137C38.8003 61.962 38.9979 61.4851 38.9979 60.9878C38.9979 60.4905 38.8003 60.0136 38.4487 59.662L21.213 42.4263Z" fill="#D8ECFF"/>
<path d="M18.5617 40.5489C18.0638 40.5489 17.5863 40.7467 17.2342 41.0988C16.8822 41.4508 16.6844 41.9284 16.6844 42.4263C16.6844 42.9242 16.8822 43.4017 17.2342 43.7538C17.5863 44.1058 18.0638 44.3036 18.5617 44.3036L63.6398 44.3036C64.1377 44.3036 64.6152 44.1058 64.9673 43.7538C65.3194 43.4017 65.5172 42.9242 65.5172 42.4263C65.5172 41.9284 65.3194 41.4508 64.9673 41.0988C64.6152 40.7467 64.1377 40.5489 63.6398 40.5489L18.5617 40.5489Z" fill="#D8ECFF"/>
</g>
<defs>
<clipPath id="clip0_295_120">
<rect width="60" height="60" fill="white" transform="translate(0 42.4263) rotate(-45)"/>
</clipPath>
</defs>
</svg>
