<svg width="35" height="35" viewBox="0 0 35 35" fill="none" xmlns="http://www.w3.org/2000/svg">
<path d="M4.09793 7.57736C4.03312 5.71389 5.4848 3.99561 7.44727 3.99561H27.5559C29.5183 3.99561 30.97 5.71389 30.9052 7.57736C30.8429 9.36729 30.9238 11.686 31.5073 13.5766C32.0927 15.4731 33.0798 16.6716 34.6967 16.8258V18.5723C33.0798 18.7265 32.0927 19.925 31.5073 21.8215C30.9238 23.7121 30.8429 26.0308 30.9052 27.8208C30.97 29.6842 29.5183 31.4022 27.5559 31.4022H7.44727C5.4848 31.4022 4.03312 29.684 4.09793 27.8208C4.16027 26.0308 4.07934 23.7121 3.49555 21.8215C2.91039 19.9253 1.92055 18.7265 0.303711 18.5723V16.8258C1.92055 16.6719 2.91039 15.4731 3.49555 13.5766C4.07934 11.686 4.16 9.36729 4.09793 7.57736Z" fill="#272727"/>
<g filter="url(#filter0_d_652_40)">
<path d="M18.3503 25.0843C21.5274 25.0843 23.4419 23.5287 23.4419 20.9629C23.4419 19.0234 22.0759 17.6193 20.0475 17.397V17.3162C21.5377 17.0738 22.7072 15.6899 22.7072 14.1444C22.7072 11.9423 20.9686 10.5078 18.3193 10.5078H12.3584V25.0843H18.3503ZM14.6765 12.3564H17.7605C19.437 12.3564 20.389 13.1039 20.389 14.4575C20.389 15.902 19.2818 16.7101 17.2741 16.7101H14.6765V12.3564ZM14.6765 23.2357V18.4375H17.7397C19.9337 18.4375 21.072 19.2456 21.072 20.8214C21.072 22.3972 19.9648 23.2357 17.8743 23.2357H14.6765Z" fill="#AAAAAA"/>
</g>
<defs>
<filter id="filter0_d_652_40" x="11.8671" y="10.1393" width="12.0656" height="15.5593" filterUnits="userSpaceOnUse" color-interpolation-filters="sRGB">
<feFlood flood-opacity="0" result="BackgroundImageFix"/>
<feColorMatrix in="SourceAlpha" type="matrix" values="0 0 0 0 0 0 0 0 0 0 0 0 0 0 0 0 0 0 127 0" result="hardAlpha"/>
<feOffset dy="0.12283"/>
<feGaussianBlur stdDeviation="0.24566"/>
<feColorMatrix type="matrix" values="0 0 0 0 0 0 0 0 0 0 0 0 0 0 0 0 0 0 0.15 0"/>
<feBlend mode="normal" in2="BackgroundImageFix" result="effect1_dropShadow_652_40"/>
<feBlend mode="normal" in="SourceGraphic" in2="effect1_dropShadow_652_40" result="shape"/>
</filter>
</defs>
</svg>
