<svg width="35" height="35" viewBox="0 0 35 40" fill="none" xmlns="http://www.w3.org/2000/svg">
<path d="M34.6854 34.7166L29.4574 29.9149C29.2934 29.7641 29.079 29.6683 28.8486 29.6429C28.6182 29.6175 28.3852 29.664 28.1871 29.7749C26.2484 30.85 24.0268 31.4181 21.7622 31.4181C19.4976 31.4181 17.276 30.85 15.3374 29.7749C15.1387 29.6657 14.9061 29.6203 14.6762 29.6456C14.4463 29.6709 14.232 29.7657 14.0671 29.9149L8.83901 34.7166C8.67519 34.8631 8.56819 35.0549 8.53443 35.2627C8.50067 35.4704 8.542 35.6825 8.6521 35.8666C8.72778 35.9882 8.8304 36.0938 8.95334 36.1766C12.6748 38.6615 17.1576 40 21.7586 40C26.3596 40 30.8424 38.6615 34.5639 36.1766C34.6874 36.0949 34.7901 35.9895 34.865 35.8678C34.9398 35.7461 34.9851 35.6109 34.9976 35.4716C35.0079 35.3325 34.9853 35.1931 34.9315 35.0627C34.8776 34.9324 34.7937 34.8143 34.6854 34.7166ZM34.6891 5.26991L29.4628 10.0699C29.2987 10.2211 29.084 10.3172 28.8532 10.3426C28.6224 10.368 28.389 10.3212 28.1907 10.2099C25.4855 8.71248 22.2614 8.21596 19.1723 8.82103C16.0832 9.42609 13.3603 11.0875 11.5556 13.4683C10.1856 15.28 9.41547 17.417 9.33805 19.6216C9.25837 21.8262 9.87472 24.0048 11.1128 25.8949C11.2333 26.0766 11.284 26.2901 11.2567 26.5013C11.2294 26.7126 11.1257 26.9093 10.9622 27.0599L5.7341 31.8599C5.62946 31.9582 5.50272 32.0344 5.36274 32.083C5.22276 32.1317 5.0729 32.1517 4.92362 32.1417C4.77434 32.1317 4.62924 32.092 4.49842 32.0251C4.36761 31.9583 4.25424 31.8661 4.16622 31.7549C0.891629 27.622 -0.53467 22.494 0.180533 17.4251C0.895736 12.3561 3.69809 7.73136 8.01152 4.50158C11.7358 1.71 16.3617 0.129765 21.167 0.00764953C25.9723 -0.114466 30.6863 1.22841 34.5729 3.82658C34.6938 3.90778 34.7941 4.01213 34.8668 4.13241C34.9395 4.2527 34.9829 4.38605 34.9939 4.52325C35.0051 4.66056 34.9836 4.79845 34.9309 4.92738C34.8783 5.05631 34.7958 5.17318 34.6891 5.26991ZM21.7722 25.7049C23.4216 25.7049 25.0034 25.1032 26.1696 24.032C27.3359 22.9609 27.9911 21.5081 27.9911 19.9933C27.9911 18.4784 27.3359 17.0256 26.1696 15.9545C25.0034 14.8834 23.4216 14.2816 21.7722 14.2816C20.1229 14.2816 18.5411 14.8834 17.3748 15.9545C16.2085 17.0256 15.5533 18.4784 15.5533 19.9933C15.5533 21.5081 16.2085 22.9609 17.3748 24.032C18.5411 25.1032 20.1229 25.7049 21.7722 25.7049Z" fill="#272727"/>
</svg>
