<svg width="25" height="35" viewBox="0 0 46 72" fill="none" xmlns="http://www.w3.org/2000/svg">
<path d="M1.64022 38.8215L2.45634 47.9337H22.8362V38.8215H1.64022ZM0 20.3782L0.827809 29.4904H22.8362V20.3782H0ZM22.8362 62.4869L22.7962 62.4975L12.6538 59.7573L12.0054 52.4899H2.86325L4.13904 66.7975L22.7942 71.9789L22.8362 71.9675V62.4869Z" fill="#191919"/>
<path d="M3.33594 0L14.3658 0V4.61531H7.94863V9.23063H14.3664V13.8457H3.33594V0ZM16.572 0L27.6022 0V4.01329H21.1847V4.81589H27.6022V14.0465H16.5723V9.83208H22.9898V9.02948H16.5718L16.572 0ZM29.8084 0L40.8385 0V4.01329L34.4211 4.01329V4.81589L40.8385 4.81589V14.0465H29.8084V9.83208H36.2259V9.02948H29.8087L29.8084 0Z" fill="#272727"/>
<path d="M43.9736 38.8215L45.6176 20.3782H22.8045V29.4904H35.6371L34.8084 38.8215H22.8045V47.9337H34.0188L32.9615 59.7516L22.8042 62.4946V71.9746L41.4742 66.7975L41.6111 65.2579L43.7515 41.2683L43.9736 38.8215Z" fill="#272727"/>
</svg>
