<svg width="35" height="35" viewBox="0 0 25 13" fill="none" xmlns="http://www.w3.org/2000/svg">
<path d="M25 12.6555C24.0907 12.8628 23.5284 12.6645 23.0238 11.9856C21.8912 10.4653 20.6409 9.01461 19.4345 7.53715C19.2789 7.346 19.1174 7.15841 18.916 6.92081C17.4882 8.64658 16.0625 10.2902 14.7244 11.9999C14.2458 12.6109 13.7433 12.8771 12.85 12.6609L18.2181 6.2062L13.2209 0.376792C14.0803 0.226724 14.6746 0.303544 15.201 0.99314C16.3636 2.51525 17.6458 3.96412 18.924 5.49695C20.2102 3.96948 21.4764 2.51883 22.6729 1.01101C23.1535 0.400016 23.6699 0.167769 24.5334 0.39287C23.8793 1.17001 23.2392 1.93464 22.5951 2.69391C21.7257 3.71758 20.8722 4.75376 19.9709 5.756C19.6498 6.1133 19.7017 6.34555 19.9888 6.6832C21.6559 8.64658 23.303 10.6296 25 12.6555ZM0.00598231 6.09901C0.149557 5.45408 0.245274 4.79664 0.444684 4.16421C1.64114 0.335702 6.54662 -1.25609 9.91665 1.11641C11.8908 2.50811 12.3814 4.4697 12.2836 6.68141H1.15658C0.989072 10.6493 4.17763 13.045 8.24161 11.823C9.66739 11.3942 10.5069 10.3938 10.9277 9.14323C11.141 8.51617 11.494 8.41791 12.152 8.59656C11.815 10.1615 11.0513 11.4693 9.45601 12.2875C7.06309 13.5131 3.6472 13.1164 1.85052 11.4139C0.789663 10.4134 0.338997 9.16825 0.139587 7.823C0.109675 7.60862 0.0478583 7.39781 0 7.18521C0.00398819 6.82314 0.00598231 6.46108 0.00598231 6.09901ZM1.17652 5.83282H11.2328C11.1669 2.96367 9.17285 0.925253 6.44692 0.907387C3.45577 0.885949 1.30613 2.87613 1.17652 5.83282Z" fill="#272727"/>
</svg>
