<svg width="22" height="13" viewBox="0 0 22 13" fill="none" xmlns="http://www.w3.org/2000/svg">
<path d="M11 3.9C10.2044 3.9 9.44129 4.17393 8.87868 4.66152C8.31607 5.14912 8 5.81044 8 6.5C8 7.18956 8.31607 7.85088 8.87868 8.33848C9.44129 8.82607 10.2044 9.1 11 9.1C11.7956 9.1 12.5587 8.82607 13.1213 8.33848C13.6839 7.85088 14 7.18956 14 6.5C14 5.81044 13.6839 5.14912 13.1213 4.66152C12.5587 4.17393 11.7956 3.9 11 3.9ZM11 10.8333C9.67392 10.8333 8.40215 10.3768 7.46447 9.56413C6.52678 8.75147 6 7.64927 6 6.5C6 5.35073 6.52678 4.24853 7.46447 3.43587C8.40215 2.62321 9.67392 2.16667 11 2.16667C12.3261 2.16667 13.5979 2.62321 14.5355 3.43587C15.4732 4.24853 16 5.35073 16 6.5C16 7.64927 15.4732 8.75147 14.5355 9.56413C13.5979 10.3768 12.3261 10.8333 11 10.8333ZM11 0C6 0 1.73 2.69533 0 6.5C1.73 10.3047 6 13 11 13C16 13 20.27 10.3047 22 6.5C20.27 2.69533 16 0 11 0Z" fill="#ffffff"/>
</svg>
