<svg width="35" height="35" viewBox="0 0 69 103" fill="none" xmlns="http://www.w3.org/2000/svg">
<path d="M17.25 103C26.772 103 34.5 95.3094 34.5 85.8334V68.6667H17.25C7.728 68.6667 0 76.3574 0 85.8334C0 95.3094 7.728 103 17.25 103Z" fill="#191919"/>
<path d="M0 51.4999C0 42.0239 7.728 34.3333 17.25 34.3333H34.5V68.6666H17.25C7.728 68.6666 0 60.9759 0 51.4999Z" fill="#272727"/>
<path d="M0 17.1667C0 7.69067 7.728 0 17.25 0L34.5 0V34.3333H17.25C7.728 34.3333 0 26.6427 0 17.1667Z" fill="#191919"/>
<path d="M34.5 0L51.75 0C61.272 0 69 7.69067 69 17.1667C69 26.6427 61.272 34.3333 51.75 34.3333H34.5V0Z" fill="#272727"/>
<path d="M69 51.4999C69 60.9759 61.272 68.6666 51.75 68.6666C42.228 68.6666 34.5 60.9759 34.5 51.4999C34.5 42.0239 42.228 34.3333 51.75 34.3333C61.272 34.3333 69 42.0239 69 51.4999Z" fill="#191919"/>
</svg>
