<svg width="22" height="22" viewBox="0 0 20 21" fill="none" xmlns="http://www.w3.org/2000/svg">
<path d="M16.586 7.65496C16.5464 7.56454 16.4911 7.48187 16.4227 7.41079L11.4227 2.41079C11.3516 2.34232 11.2689 2.28702 11.1785 2.24746C11.1535 2.23579 11.1268 2.22913 11.1002 2.21996C11.0304 2.19632 10.9578 2.18203 10.8843 2.17746C10.8668 2.17579 10.851 2.16663 10.8335 2.16663H5.00016C4.081 2.16663 3.3335 2.91413 3.3335 3.83329V17.1666C3.3335 18.0858 4.081 18.8333 5.00016 18.8333H15.0002C15.9193 18.8333 16.6668 18.0858 16.6668 17.1666V7.99996C16.6668 7.98246 16.6577 7.96663 16.656 7.94829C16.6514 7.87479 16.6371 7.80221 16.6135 7.73246C16.6057 7.70579 16.5966 7.67996 16.586 7.65496ZM13.8218 7.16663H11.6668V5.01163L13.8218 7.16663ZM5.00016 17.1666V3.83329H10.0002V7.99996C10.0002 8.22097 10.088 8.43293 10.2442 8.58921C10.4005 8.74549 10.6125 8.83329 10.8335 8.83329H15.0002L15.0018 17.1666H5.00016Z" fill="#ffffff"/>
<path d="M6.6665 10.5H13.3332V12.1666H6.6665V10.5ZM6.6665 13.8333H13.3332V15.5H6.6665V13.8333ZM6.6665 7.16663H8.33317V8.83329H6.6665V7.16663Z" fill="#ffffff"/>
</svg>
