<svg width="35" height="35" viewBox="0 0 35 48" fill="none" xmlns="http://www.w3.org/2000/svg">
<path d="M35 38.7361L19.0312 47.5744C17.9375 48.1418 16.8438 48.1418 15.75 47.5744L0 38.7361L28.5469 10.0386L29.3125 9.82041C29.9688 9.82041 30.3406 10.1041 30.4062 10.6933L35 38.7361ZM11.7031 10.4751L1.75 26.9516L5.90625 0.872926C5.97187 0.283701 6.34375 0 7 0C7.4375 0 7.72187 0.130939 7.875 0.545579L12.5781 9.16572L11.7031 10.4751ZM21.5469 13.2248L0.65625 34.1532L16.5156 7.31075C16.7344 6.87429 17.0625 6.67788 17.5 6.67788C17.9375 6.67788 18.2219 6.87429 18.375 7.31075L21.5469 13.2248Z" fill="#272727"/>
</svg>
