<svg width="20" height="20" viewBox="0 0 20 21" fill="none" xmlns="http://www.w3.org/2000/svg">
<path d="M10.0005 0.5C4.47523 0.5 3.71814e-06 5.0883 3.71814e-06 10.7532C-0.00180701 12.9056 0.657793 15.004 1.88515 16.7503C3.11251 18.4966 4.84525 19.8021 6.83734 20.4814C7.33737 20.5706 7.52538 20.263 7.52538 19.9934C7.52538 19.7504 7.51238 18.9434 7.51238 18.0842C5.00025 18.5589 4.35022 17.4567 4.15021 16.8795C4.03721 16.5842 3.55018 15.6747 3.12516 15.4307C2.77514 15.239 2.27512 14.7642 3.11216 14.7519C3.9002 14.7386 4.46223 15.4953 4.65024 15.8029C5.55028 17.3532 6.98735 16.9174 7.56238 16.6488C7.65038 15.9823 7.9124 15.5343 8.20041 15.2779C5.9753 15.0216 3.65019 14.1367 3.65019 10.2149C3.65019 9.09935 4.03721 8.17759 4.67524 7.45986C4.57523 7.20353 4.22521 6.15258 4.77524 4.74277C4.77524 4.74277 5.61228 4.47311 7.52538 5.7927C8.33958 5.56163 9.18069 5.44539 10.0255 5.44716C10.8755 5.44716 11.7256 5.562 12.5256 5.7927C14.4387 4.45978 15.2758 4.74277 15.2758 4.74277C15.8258 6.15258 15.4758 7.20353 15.3758 7.45986C16.0128 8.17759 16.4008 9.08705 16.4008 10.2149C16.4008 14.1501 14.0637 15.0216 11.8386 15.2779C12.2006 15.5978 12.5136 16.213 12.5136 17.1748C12.5136 18.5456 12.5006 19.6478 12.5006 19.9944C12.5006 20.263 12.6886 20.5829 13.1887 20.4804C15.1733 19.7925 16.8977 18.4842 18.1195 16.7394C19.3412 14.9946 19.9989 12.9011 20 10.7532C20 5.0883 15.5248 0.5 9.9995 0.5" fill="#09090b"/>
</svg>
