<svg width="25" height="35" viewBox="0 0 36 46" fill="none" xmlns="http://www.w3.org/2000/svg">
<path d="M17.9466 25.5614H10.6367L10.1324 19.9041H17.9466V14.3801H4.09521L4.22702 15.8625L5.58505 31.0848H17.9466V25.5614ZM17.9466 39.907L17.9221 39.9135L11.7706 38.2519L11.3771 33.8468H5.83169L6.60557 42.5202L17.9211 45.6617L17.9466 45.6542V39.907Z" fill="#191919"/>
<path d="M0 0L2.80692 0V2.77397H5.37519V0L8.18261 0V8.39879H5.37519V5.58638H2.80742V8.39879H0L0 0ZM11.8737 2.78545H9.40233V0L17.1536 0V2.78545L14.6812 2.78545V8.39879H11.8737V2.78545ZM18.3838 0L21.3105 0L23.1114 2.95121L24.9103 0L27.8385 0V8.39879H25.0421V4.23584L23.1114 7.222H23.0625L21.1303 4.23584V8.39879H18.3833V0L18.3838 0ZM29.236 0L32.0439 0V5.62283H35.9917V8.39929H29.236V0Z" fill="#272727"/>
<path d="M17.9277 25.5614V31.0848H24.7298L24.0888 38.2489L17.9277 39.912V45.6587L29.2523 42.5202L29.3352 41.5866L30.6333 27.0442L30.7681 25.5614H29.2792H17.9277ZM17.9277 14.3801V19.9041H31.2708L31.3812 18.6624L31.6333 15.8625L31.7656 14.3801H17.9277Z" fill="#272727"/>
</svg>

