<svg width="35" height="35" viewBox="0 0 84 84" fill="none" xmlns="http://www.w3.org/2000/svg">
<g clip-path="url(#clip0_494_159)">
<path d="M0 0H84V84H0V0Z" fill="none"/>
<path d="M22.0869 70.1965L28.5149 66.3063C29.7552 68.505 30.8833 70.3655 33.5893 70.3655C36.1832 70.3655 37.8189 69.3509 37.8189 65.4043V38.5643H45.7126V65.5158C45.7126 73.6917 40.92 77.4133 33.9276 77.4133C27.6129 77.4133 23.9477 74.1435 22.0869 70.1965ZM50.0002 69.3506L56.4275 65.6294C58.1196 68.3925 60.3187 70.4223 64.209 70.4223C67.4801 70.4223 69.5656 68.7869 69.5656 66.5314C69.5656 63.825 67.423 62.8662 63.8142 61.2879L61.8412 60.4414C56.146 58.0175 52.3683 54.9725 52.3683 48.5445C52.3683 42.6239 56.879 38.1128 63.9274 38.1128C68.9458 38.1128 72.5545 39.861 75.148 44.4282L69.0016 48.3756C67.6481 45.951 66.1826 44.9926 63.9271 44.9926C61.6151 44.9926 60.1491 46.4586 60.1491 48.3756C60.1491 50.7436 61.6152 51.7027 64.9981 53.1688L66.9715 54.0144C73.6816 56.8904 77.4593 59.8222 77.4593 66.4188C77.4593 73.524 71.8773 77.4143 64.378 77.4143C57.048 77.4143 52.3118 73.9181 50.0002 69.3506Z" fill="#191919"/>
</g>
<defs>
<clipPath id="clip0_494_159">
<rect width="84" height="84" fill="white"/>
</clipPath>
</defs>
</svg>
