<svg width="768" height="1217" viewBox="0 0 768 1217" fill="none" xmlns="http://www.w3.org/2000/svg">
<path d="M107 112C107 415 405 415 405 736.5" stroke="white" stroke-width="2"/>
<path d="M480 0C480 357.584 405 357.584 405 737" stroke="white" stroke-width="2"/>
<path d="M721 163C721 441.983 405 441.983 405 738" stroke="white" stroke-width="2"/>
<path d="M767 467C767 598.486 405 598.486 405 738" stroke="white" stroke-width="2"/>
<path d="M1 360C1 543.401 405 543.401 405 738" stroke="white" stroke-width="2"/>
<path d="M491 623C491 678.311 405 678.311 405 737" stroke="white" stroke-width="2"/>
<path d="M156 595C156 663.897 405 663.397 405 736.5" stroke="white" stroke-width="2"/>
<path d="M405 733.5L404.5 324" stroke="white" stroke-width="2"/>
<path d="M405 738C405 886.167 405 1189.4 405 1217" stroke="white" stroke-width="2"/>
</svg>
