<svg width="35" height="37" viewBox="0 0 35 76" fill="none" xmlns="http://www.w3.org/2000/svg">
<path fill-rule="evenodd" clip-rule="evenodd" d="M32.2755 24.9924C33.2629 27.8467 33.9726 30.7604 34.2068 33.7796C34.4965 37.5262 34.3645 41.2471 33.5743 44.9318L33.4729 45.2263C33.2251 45.2271 32.9724 45.1957 32.7302 45.2335C30.6839 45.5554 28.64 45.8886 26.5952 46.2201C24.4813 46.5629 22.3658 46.892 20.2559 47.2573C19.5084 47.3861 18.583 47.2324 18.2812 48.2656L18.1364 48.3147L18.2386 42.1363L18.1348 27.2287L19.1197 27.0597C20.7299 26.7965 22.3401 26.5286 23.9527 26.2719C25.8759 25.9669 27.8007 25.6692 29.7255 25.3714C30.5752 25.2411 31.4258 25.1196 32.2755 24.9924Z" fill="#191919"/>
<path fill-rule="evenodd" clip-rule="evenodd" d="M16.104 66.3269C15.0651 65.4337 13.9901 64.5799 12.9947 63.64C7.63705 58.5866 3.71742 52.6375 1.78698 45.4654C1.25508 43.4923 0.901014 41.4862 0.786749 39.4471C0.70628 38.0196 0.591209 36.58 0.6926 35.1597C0.960561 31.3833 1.50694 27.6431 2.61419 24.0051L2.67535 23.9207C2.78318 24.0639 2.93768 24.191 2.9924 24.3528C4.07336 27.5361 5.14735 30.7224 6.21437 33.9117C9.56911 43.9308 12.9198 53.9524 16.2802 63.9699C16.3462 64.1655 16.516 64.3256 16.6383 64.5018L16.104 66.3269Z" fill="#191919"/>
<path fill-rule="evenodd" clip-rule="evenodd" d="M32.2759 24.9923C31.4253 25.1187 30.5748 25.241 29.7258 25.3713C27.801 25.6691 25.8762 25.9668 23.953 26.2718C22.3412 26.5277 20.731 26.7956 19.1201 27.0596L18.1351 27.2286L18.1271 26.5864C18.0941 26.0585 18.0394 25.5307 18.0321 25.0028L17.9219 14.9007C17.8961 12.7933 17.8575 10.6858 17.8149 8.57912C17.7932 7.26974 17.7553 5.96069 17.7014 4.65224C17.6692 3.94975 17.5557 3.25048 17.5107 2.54799C17.4841 2.14403 17.5195 1.73686 17.5284 1.3313C18.0305 2.30417 18.5222 3.28428 19.038 4.2499C19.8531 5.77639 21.1527 6.90135 22.3235 8.12849C26.9473 12.9816 30.2296 18.6208 32.2759 24.9923Z" fill="#272727"/>
<path fill-rule="evenodd" clip-rule="evenodd" d="M18.1374 48.3147L18.2822 48.2656C18.584 47.2324 19.5094 47.3861 20.257 47.2573C22.3668 46.892 24.4824 46.5629 26.5963 46.2201C28.641 45.8894 30.6849 45.5562 32.7312 45.2335C32.9734 45.1957 33.2261 45.2271 33.4739 45.2263C33.0917 46.5911 32.7908 47.9856 32.3055 49.3125C31.7543 50.8173 31.088 52.2866 30.3807 53.727C29.3211 55.875 28.0102 57.8895 26.4756 59.7284C25.2959 61.1462 23.981 62.4587 22.6638 63.7534C21.9347 64.4688 21.0769 65.0522 20.2771 65.6959L20.0695 65.5543L19.3235 64.917L18.5518 63.2239C18.0249 61.2495 17.7372 59.219 17.6948 57.1759L17.7093 56.8315L17.8147 55.3396C17.8493 54.8302 17.896 54.3217 17.9177 53.8123C17.995 51.9808 18.0642 50.1478 18.1374 48.3147Z" fill="#272727"/>
<path fill-rule="evenodd" clip-rule="evenodd" d="M18.1374 48.3147C18.0649 50.1478 17.9957 51.9817 17.9177 53.8147C17.896 54.3249 17.8501 54.8335 17.8147 55.342L17.3447 55.5199C16.3003 52.4452 15.255 49.4026 14.233 46.3529C12.5424 41.3067 10.8726 36.2532 9.18441 31.2054C7.82114 27.1316 6.44834 23.0609 5.06602 18.9935C5.00084 18.8036 4.81576 18.6539 4.68701 18.4857L7.69654 12.9519C7.80035 13.1313 7.93634 13.2995 8.00152 13.4927C9.39363 17.6127 10.7833 21.7335 12.161 25.8583C13.9538 31.2256 15.7346 36.5952 17.5258 41.9633C17.5974 42.1774 17.7149 42.3753 17.8276 42.6159L18.2396 42.1363L18.1374 48.3147Z" fill="#191919"/>
<path fill-rule="evenodd" clip-rule="evenodd" d="M4.68604 18.4858C4.81559 18.654 5.00067 18.8037 5.06504 18.9936C6.44748 23.061 7.82028 27.1316 9.18344 31.2055C10.8717 36.2533 12.5414 41.3068 14.232 46.353C15.254 49.4027 16.2993 52.4445 17.3438 55.52L17.8137 55.3421L17.7083 56.834L17.6125 57.1776C17.4492 58.8103 17.3116 60.4463 17.112 62.0758C17.0122 62.8925 16.799 63.694 16.6373 64.5019C16.5157 64.3257 16.3452 64.1655 16.2792 63.97C12.918 53.9524 9.56807 43.9309 6.21333 33.9117C5.14598 30.7232 4.07199 27.5369 2.99136 24.3528C2.93665 24.1911 2.78214 24.0639 2.67432 23.9207L4.68604 18.4858Z" fill="#272727"/>
<path fill-rule="evenodd" clip-rule="evenodd" d="M18.2388 42.1363L17.8268 42.6159C17.7142 42.3753 17.5967 42.1773 17.5251 41.9633C15.7338 36.5952 13.953 31.2255 12.1602 25.8583C10.781 21.7339 9.39449 17.6121 8.00078 13.4926C7.9356 13.2995 7.79961 13.1313 7.6958 12.9519L11.4175 8.05615C11.535 8.21226 11.7023 8.35147 11.7627 8.5277C12.7954 11.5533 13.8205 14.5814 14.8382 17.6118C15.7893 20.4427 16.726 23.2768 17.6884 26.1029C17.7528 26.292 17.9773 26.4256 18.127 26.5865L18.135 27.2286L18.2388 42.1363Z" fill="#272727"/>
<path fill-rule="evenodd" clip-rule="evenodd" d="M16.6381 64.5009C16.7999 63.693 17.0131 62.8915 17.1129 62.0747C17.3125 60.446 17.4501 58.8093 17.6134 57.1766L17.6545 57.1702L17.6947 57.1774C17.7371 59.2205 18.0248 61.251 18.5517 63.2254C18.4431 63.3687 18.291 63.495 18.233 63.656C17.7864 64.9161 17.3648 66.1867 16.9158 67.446C16.8546 67.6182 16.6824 67.7526 16.5625 67.9031L16.103 66.3259L16.6381 64.5009Z" fill="#A9AA88"/>
<path fill-rule="evenodd" clip-rule="evenodd" d="M16.5625 67.904C16.6824 67.7527 16.8546 67.6191 16.9158 67.4469C17.3648 66.1876 17.7864 64.917 18.233 63.6568C18.2902 63.4959 18.4431 63.3696 18.5517 63.2263L19.3234 64.9194C19.1713 65.135 18.9605 65.3306 18.876 65.5712L17.3986 69.9101C17.3374 70.0847 17.1306 70.207 16.9906 70.3542L16.5625 67.904Z" fill="#B6B598"/>
<path fill-rule="evenodd" clip-rule="evenodd" d="M16.9907 70.3536C17.1299 70.2063 17.3375 70.084 17.3987 69.9094L18.8761 65.5705C18.9598 65.3299 19.1714 65.1344 19.3235 64.9187L20.0703 65.5552C19.7098 65.9117 19.5094 66.3237 19.6301 66.8443L19.4032 67.587C19.3002 67.7142 19.1505 67.8252 19.0998 67.9709C18.584 69.4483 18.0923 70.9337 17.5725 72.4103C17.5065 72.597 17.3239 72.7443 17.1959 72.9101L16.9907 70.3536Z" fill="#C2C1A7"/>
<path fill-rule="evenodd" clip-rule="evenodd" d="M17.1948 72.9092C17.3235 72.7434 17.5062 72.5962 17.5714 72.4095C18.0912 70.9329 18.5837 69.4474 19.0987 67.97C19.1494 67.8244 19.299 67.7141 19.402 67.5862L19.089 70.9948C19.0053 71.0914 18.8846 71.1759 18.8444 71.2877L17.8031 74.2715C17.7299 74.4751 17.5899 74.657 17.4805 74.8477C17.3831 74.7205 17.2093 74.5974 17.2012 74.4655C17.1707 73.9488 17.1924 73.4282 17.1948 72.9092Z" fill="#CECDB7"/>
<path fill-rule="evenodd" clip-rule="evenodd" d="M17.4814 74.8485C17.5909 74.6577 17.7309 74.4759 17.8041 74.2723L18.8454 71.2885C18.8856 71.1759 19.0071 71.0922 19.09 70.9956L19.0981 73.2326L18.3489 75.1534L17.4814 74.8485Z" fill="#DBDAC7"/>
<path fill-rule="evenodd" clip-rule="evenodd" d="M18.3491 75.1535L19.0983 73.2327L19.2528 75.5051L18.3491 75.1535Z" fill="#EBE9DC"/>
<path fill-rule="evenodd" clip-rule="evenodd" d="M19.6291 66.8443C19.5092 66.3245 19.7088 65.9125 20.0693 65.5552L20.2769 65.6968L19.6291 66.8443Z" fill="#CECDB7"/>
<path fill-rule="evenodd" clip-rule="evenodd" d="M17.6946 57.1784L17.6543 57.1711L17.6133 57.1776L17.709 56.834L17.6946 57.1784Z" fill="#4FAA41"/>
<path fill-rule="evenodd" clip-rule="evenodd" d="M18.127 26.5866C17.9765 26.4265 17.7528 26.2929 17.6884 26.103C16.7268 23.2769 15.7893 20.4428 14.8382 17.6119C13.8203 14.5814 12.7951 11.5534 11.7627 8.52779C11.7023 8.35157 11.535 8.21235 11.4175 8.05624C12.6277 6.87094 13.8002 5.64299 15.0595 4.5124C16.1788 3.50815 17.0785 2.43148 17.1203 0.84383L17.2088 0.527588L17.5275 1.33067C17.5194 1.73623 17.4832 2.1434 17.5098 2.54735C17.5556 3.24985 17.6691 3.94912 17.7005 4.65161C17.7592 5.95923 17.7874 7.26926 17.8139 8.57849C17.8566 10.6852 17.8952 12.7926 17.921 14.9001L18.0312 25.0022C18.0393 25.5308 18.0948 26.0587 18.127 26.5866Z" fill="#191919"/>
</svg>
