<svg width="35" height="35" viewBox="0 0 90 103" fill="none" xmlns="http://www.w3.org/2000/svg">
<path d="M47.3277 0.664116C46.5885 0.240626 45.7514 0.0178223 44.8996 0.0178223C44.0477 0.0178223 43.2106 0.240626 42.4714 0.664116L2.38188 23.9477C0.856992 24.8104 0 26.4383 0 28.1643L0 74.8265C0 76.551 0.951945 78.1797 2.38027 79.0431L42.4698 102.326C43.2091 102.75 44.0463 102.972 44.8983 102.972C45.7504 102.972 46.5876 102.75 47.3269 102.326L87.4164 79.0423C88.9405 78.1797 89.7967 76.551 89.7967 74.8257V28.1643C89.7967 26.4391 88.8447 24.8112 87.4164 23.9477L47.3277 0.664116Z" fill="url(#paint0_linear_494_158)"/>
<path d="M87.5128 23.9477L47.2333 0.664092C46.8381 0.462237 46.4231 0.301788 45.9949 0.185303L0.858398 77.8924C1.23231 78.3508 1.68357 78.7402 2.19177 79.0431L42.472 102.326C43.6147 102.996 44.9472 103.189 46.1856 102.805L88.5605 24.8104C88.2823 24.446 87.9238 24.1508 87.5128 23.9477Z" fill="#191919"/>
<path d="M87.5134 79.0406C88.6561 78.3703 89.5131 77.2204 89.8937 75.9748L45.8049 0.0871145C44.6622 -0.104401 43.4238 -0.00864334 42.3769 0.662466L2.38232 23.8503L45.5184 102.995C46.0897 102.899 46.7576 102.707 47.3289 102.42L87.5134 79.0406Z" fill="#272727"/>
<defs>
<linearGradient id="paint0_linear_494_158" x1="61.2253" y1="18.0032" x2="24.6132" y2="92.2278" gradientUnits="userSpaceOnUse">
<stop stop-color="#272727"/>
<stop offset="1" stop-color="#191919"/>
</linearGradient>
</defs>
</svg>
