<svg width="35" height="35" viewBox="0 0 35 35" fill="none" xmlns="http://www.w3.org/2000/svg">
<path d="M31.3497 6.80382C25.4451 -0.843814 14.4549 -2.25784 6.80381 3.65026C-0.843813 9.55486 -2.25784 20.5451 3.65026 28.1962C9.5566 35.8438 20.5468 37.2578 28.1962 31.3497L28.1997 31.3462C35.8455 25.4381 37.256 14.4514 31.3497 6.80382ZM26.8714 11.1701L25.5064 9.82612L25.2106 9.53211L25.2929 9.44986L27.3649 7.49333C27.7359 7.94309 27.9389 8.50835 27.9389 9.09461C27.9371 9.77712 27.6641 10.4334 27.1794 10.9164C27.0826 11.0097 26.9799 11.0943 26.8714 11.1701ZM8.22133 25.7916L8.46459 26.0191L9.73336 27.2879L6.90881 27.1042L8.22133 25.7916ZM25.3576 6.52731C25.9264 6.53081 26.4794 6.71982 26.9326 7.06632L24.6576 9.35536C24.6238 9.38252 24.5979 9.41815 24.5823 9.45861L24.5806 9.46736L24.5771 9.47786C24.5643 9.52163 24.565 9.56823 24.5791 9.6116C24.5931 9.65497 24.6199 9.69313 24.6558 9.72112L26.3779 11.4414C25.9069 11.6462 25.3852 11.7043 24.8807 11.6081C24.3762 11.512 23.9124 11.266 23.5498 10.9024C23.1939 10.5431 22.9518 10.0868 22.8538 9.5907C22.7557 9.09455 22.8061 8.58052 22.9986 8.11284C23.1906 7.64466 23.5173 7.24404 23.9373 6.96177C24.3572 6.67949 24.8516 6.52829 25.3576 6.52731ZM23.7668 12.2429C23.7637 12.3542 23.7374 12.4635 23.6898 12.5641C23.6423 12.6648 23.5743 12.7544 23.4903 12.8274L16.674 18.7583L16.6512 18.7775L16.4027 18.529L16.2942 18.4205L16.2417 18.368L16.0895 18.2158L16.0317 18.158L15.9145 18.0408L22.3668 11.6461C22.4984 11.5119 22.6727 11.4279 22.8597 11.4087C23.0467 11.3895 23.2345 11.4364 23.3906 11.5411C23.437 11.5719 23.4804 11.6071 23.5201 11.6461L23.5848 11.7127C23.6408 11.7967 23.6892 11.8842 23.7301 11.9752C23.7569 12.0627 23.7692 12.1519 23.7668 12.2429ZM15.8952 18.788L15.9075 18.8213L15.967 18.879L16.2225 19.1293L16.128 19.1415L14.7122 19.3148L14.8872 19.1398L15.5715 18.4573L15.8952 18.788ZM22.7728 10.9146C22.481 10.9531 22.2102 11.0873 22.0028 11.2961L15.5715 17.6978L14.3114 16.4377C17.6452 13.1162 19.684 11.3836 20.9528 10.8149C21.2291 10.6408 21.5526 10.5569 21.8787 10.5747C22.2048 10.5926 22.5172 10.7114 22.7728 10.9146ZM13.9387 16.8087L13.9649 16.835L15.0062 17.8763L12.2901 18.4573L13.9387 16.8087ZM10.3809 25.3104C10.2958 25.3503 10.2274 25.4186 10.1874 25.5036C10.1475 25.5887 10.1385 25.685 10.1621 25.7759L10.4526 27.0447C10.4636 27.0597 10.4695 27.0777 10.4695 27.0963C10.4695 27.1149 10.4636 27.1329 10.4526 27.1479C10.4366 27.1619 10.4161 27.1697 10.3949 27.1697C10.3736 27.1697 10.3531 27.1619 10.3371 27.1479L8.61509 25.4119L13.9177 20.0305L16.6635 19.6053L17.6715 20.6133C15.4402 22.4681 12.9921 24.0453 10.3809 25.3104ZM18.1527 20.2353L17.0887 19.1713L23.7896 13.2947C23.3136 15.1847 20.7865 17.7468 18.1527 20.2353ZM27.3841 8.7726C27.3566 8.72634 27.3131 8.69185 27.2617 8.6757C27.2104 8.65956 27.1549 8.66291 27.1059 8.6851C27.082 8.69748 27.0607 8.71446 27.0433 8.73506C27.026 8.75567 27.0129 8.7795 27.0047 8.80519C26.9966 8.83088 26.9936 8.85792 26.996 8.88476C26.9983 8.9116 27.0059 8.93771 27.0184 8.9616C27.0686 9.06714 27.0886 9.18458 27.0759 9.30079C27.0632 9.417 27.0185 9.52739 26.9466 9.61962C26.928 9.63727 26.9135 9.65881 26.9041 9.6827C26.8947 9.70659 26.8907 9.73226 26.8924 9.75787C26.8924 9.81154 26.9099 9.85762 26.9449 9.89612C26.9828 9.9096 27.0242 9.9096 27.0621 9.89612C27.0962 9.90482 27.1319 9.90403 27.1656 9.89385C27.1992 9.88367 27.2294 9.86449 27.2529 9.83837C27.3741 9.69174 27.4509 9.51349 27.4742 9.32465C27.4974 9.13582 27.4662 8.94427 27.3841 8.7726Z" fill="#272727"/>
</svg>
