<svg width="35" height="35" viewBox="0 0 103 89" fill="none" xmlns="http://www.w3.org/2000/svg">
<mask id="path-1-inside-1_473_5" fill="white">
<path d="M84.6865 28.8467C83.5903 28.4815 82.4849 28.1432 81.3712 27.8319C81.5583 27.0895 81.7305 26.3561 81.8834 25.6355C84.3932 13.8032 82.7525 4.27083 77.1482 1.13233C71.7749 -1.87645 62.9873 1.26088 54.1124 8.76212C53.2377 9.50269 52.3825 10.2646 51.5475 11.0472C50.9885 10.5269 50.4196 10.0166 49.8411 9.51666C40.5398 1.49612 31.2166 -1.88427 25.6184 1.26323C20.25 4.28138 18.6603 13.2425 20.9199 24.4562C21.1447 25.5668 21.3985 26.6717 21.6811 27.7698C20.3614 28.134 19.088 28.5216 17.8693 28.9342C6.96417 32.6268 0 38.4134 0 44.4158C0 50.615 7.47635 56.833 18.8345 60.6034C19.7554 60.9077 20.6839 61.1898 21.6191 61.4494C21.3155 62.6321 21.0458 63.8227 20.8104 65.02C18.6563 76.0392 20.3385 84.7885 25.6925 87.7875C31.2223 90.8846 40.5035 87.7015 49.5406 80.0292C50.2733 79.4053 50.99 78.7639 51.6899 78.1055C52.5942 78.9529 53.5226 79.7756 54.4741 80.5727C63.2283 87.8883 71.8739 90.8424 77.2226 87.8352C82.7472 84.7291 84.5429 75.33 82.2117 63.8947C82.0281 62.9988 81.8221 62.1074 81.5941 61.2212C82.2459 61.0336 82.8856 60.8406 83.5093 60.6397C95.3172 56.8405 103 50.6979 103 44.4158C103 38.3916 95.8109 32.5659 84.6865 28.8467ZM82.1256 56.5837C81.5618 56.7645 80.9851 56.9397 80.3955 57.1093C79.0919 53.1014 77.3329 48.8398 75.1799 44.4365C77.2343 40.1382 78.9258 35.931 80.1927 31.9493C81.2465 32.2454 82.2688 32.5577 83.2546 32.8871C92.7861 36.074 98.6 40.7853 98.6 44.4158C98.6 48.2826 92.321 53.3026 82.1256 56.5837ZM77.8954 64.7246C78.9262 69.7809 79.073 74.3527 78.3902 77.9269C77.7771 81.1385 76.5435 83.2794 75.0178 84.1371C71.7721 85.9619 64.8305 83.5901 57.344 77.3334C56.4591 76.5922 55.5954 75.8273 54.7542 75.0397C57.6567 71.957 60.5572 68.3735 63.388 64.3933C68.3675 63.9642 73.0717 63.2624 77.3377 62.3047C77.5483 63.1284 77.7342 63.9351 77.8954 64.7246ZM35.115 83.8218C31.9437 84.9092 29.4178 84.9405 27.8909 84.0855C24.6419 82.2658 23.2913 75.2405 25.1336 65.8172C25.3526 64.7036 25.6034 63.5962 25.8856 62.4962C30.1046 63.4027 34.7746 64.0545 39.7656 64.4476C42.6158 68.3422 45.6 71.9219 48.6076 75.0565C47.9684 75.6571 47.3141 76.2423 46.6453 76.8117C42.6488 80.2042 38.6443 82.6112 35.115 83.8218ZM20.258 56.5599C15.2356 54.8926 11.0878 52.7258 8.24483 50.3614C5.68995 48.2369 4.40043 46.1272 4.40043 44.4158C4.40043 40.7732 9.9918 36.1272 19.3177 32.9695C20.4495 32.5866 21.634 32.2251 22.8632 31.886C24.1523 35.9576 25.8429 40.2148 27.8832 44.5197C25.8164 48.8883 24.1016 53.2135 22.8 57.3332C21.9463 57.0956 21.0987 56.8378 20.258 56.5599ZM25.2382 23.6353C23.3025 14.0279 24.588 6.78063 27.8233 4.96168C31.2689 3.02434 38.8885 5.78656 46.9197 12.7122C47.4434 13.1648 47.9587 13.6266 48.4651 14.0974C45.4725 17.2184 42.5157 20.7714 39.6908 24.643C34.8466 25.0791 30.2096 25.7793 25.9463 26.7175C25.6836 25.6962 25.4475 24.6682 25.2382 23.6353ZM69.6678 34.2906C68.6608 32.6014 67.6165 30.9334 66.5356 29.2879C69.8219 29.6915 72.9707 30.2272 75.9275 30.8821C75.0399 33.6455 73.9335 36.5343 72.6311 39.4962C71.6791 37.742 70.6912 36.0065 69.6678 34.2906ZM51.5495 17.1519C53.5789 19.2874 55.6116 21.6713 57.6108 24.2581C53.5552 24.0721 49.4928 24.0713 45.4371 24.2558C47.4383 21.6928 49.4883 19.312 51.5495 17.1519ZM33.3149 34.3195C32.3043 36.0216 31.3348 37.7463 30.4071 39.4923C29.1261 36.541 28.0297 33.6389 27.1345 30.8364C30.0732 30.1979 33.207 29.6759 36.4725 29.2796C35.3795 30.9353 34.3267 32.616 33.3149 34.3195ZM36.5662 59.8555C33.1926 59.4897 30.0116 58.9947 27.0737 58.3734C27.983 55.5209 29.1035 52.557 30.4124 49.5424C31.3437 51.2897 32.3172 53.0155 33.3322 54.7183C34.3758 56.4688 35.4565 58.1835 36.5662 59.8555ZM51.671 71.9805C49.5852 69.7954 47.5051 67.3778 45.4737 64.7778C47.446 64.8528 49.4565 64.8911 51.5 64.8911C53.5994 64.8911 55.6747 64.8454 57.7174 64.7571C55.7117 67.404 53.6867 69.8251 51.671 71.9805ZM72.6725 49.3884C74.0494 52.4363 75.2097 55.3845 76.1311 58.1882C73.1449 58.8501 69.9205 59.3831 66.5231 59.7789C67.6118 58.1028 68.666 56.4058 69.6851 54.689C70.7214 52.9439 71.7174 51.1766 72.6725 49.3884ZM65.8737 52.5539C64.3134 55.1861 62.6655 57.7684 60.9325 60.2966C57.7933 60.5127 54.6471 60.62 51.5 60.6182C48.2945 60.6182 45.1768 60.5213 42.1745 60.3322C40.3961 57.8099 38.7168 55.2231 37.1399 52.5774C35.5703 49.9458 34.1048 47.2572 32.7456 44.5174C34.1013 41.7769 35.5629 39.0871 37.1271 36.4534L37.1267 36.4538C38.6901 33.8194 40.356 31.2437 42.121 28.7322C45.184 28.5071 48.3251 28.3899 51.4996 28.3899C54.6886 28.3899 57.8341 28.5083 60.8963 28.7349C62.6434 31.2427 64.2988 33.8095 65.8592 36.4308C67.4284 39.0587 68.9093 41.7355 70.2995 44.4568C68.9235 47.2059 67.4473 49.9067 65.8737 52.5539ZM74.9506 4.83391C78.3995 6.76578 79.7409 14.5562 77.5739 24.7723C77.4349 25.4246 77.2807 26.0876 77.1112 26.7613C72.8375 25.8031 68.1973 25.0908 63.339 24.6481C60.5089 20.7339 57.5762 17.1754 54.6322 14.0947C55.4038 13.3724 56.1937 12.6689 57.0012 11.9846C64.6055 5.55797 71.7125 3.02043 74.9506 4.83391ZM51.5 35.4832C56.5796 35.4832 60.6976 39.4825 60.6976 44.4158C60.6976 49.349 56.5796 53.3483 51.5 53.3483C46.4204 53.3483 42.3024 49.349 42.3024 44.4158C42.3024 39.4825 46.4204 35.4832 51.5 35.4832Z"/>
</mask>
<path d="M84.6865 28.8467C83.5903 28.4815 82.4849 28.1432 81.3712 27.8319C81.5583 27.0895 81.7305 26.3561 81.8834 25.6355C84.3932 13.8032 82.7525 4.27083 77.1482 1.13233C71.7749 -1.87645 62.9873 1.26088 54.1124 8.76212C53.2377 9.50269 52.3825 10.2646 51.5475 11.0472C50.9885 10.5269 50.4196 10.0166 49.8411 9.51666C40.5398 1.49612 31.2166 -1.88427 25.6184 1.26323C20.25 4.28138 18.6603 13.2425 20.9199 24.4562C21.1447 25.5668 21.3985 26.6717 21.6811 27.7698C20.3614 28.134 19.088 28.5216 17.8693 28.9342C6.96417 32.6268 0 38.4134 0 44.4158C0 50.615 7.47635 56.833 18.8345 60.6034C19.7554 60.9077 20.6839 61.1898 21.6191 61.4494C21.3155 62.6321 21.0458 63.8227 20.8104 65.02C18.6563 76.0392 20.3385 84.7885 25.6925 87.7875C31.2223 90.8846 40.5035 87.7015 49.5406 80.0292C50.2733 79.4053 50.99 78.7639 51.6899 78.1055C52.5942 78.9529 53.5226 79.7756 54.4741 80.5727C63.2283 87.8883 71.8739 90.8424 77.2226 87.8352C82.7472 84.7291 84.5429 75.33 82.2117 63.8947C82.0281 62.9988 81.8221 62.1074 81.5941 61.2212C82.2459 61.0336 82.8856 60.8406 83.5093 60.6397C95.3172 56.8405 103 50.6979 103 44.4158C103 38.3916 95.8109 32.5659 84.6865 28.8467ZM82.1256 56.5837C81.5618 56.7645 80.9851 56.9397 80.3955 57.1093C79.0919 53.1014 77.3329 48.8398 75.1799 44.4365C77.2343 40.1382 78.9258 35.931 80.1927 31.9493C81.2465 32.2454 82.2688 32.5577 83.2546 32.8871C92.7861 36.074 98.6 40.7853 98.6 44.4158C98.6 48.2826 92.321 53.3026 82.1256 56.5837ZM77.8954 64.7246C78.9262 69.7809 79.073 74.3527 78.3902 77.9269C77.7771 81.1385 76.5435 83.2794 75.0178 84.1371C71.7721 85.9619 64.8305 83.5901 57.344 77.3334C56.4591 76.5922 55.5954 75.8273 54.7542 75.0397C57.6567 71.957 60.5572 68.3735 63.388 64.3933C68.3675 63.9642 73.0717 63.2624 77.3377 62.3047C77.5483 63.1284 77.7342 63.9351 77.8954 64.7246ZM35.115 83.8218C31.9437 84.9092 29.4178 84.9405 27.8909 84.0855C24.6419 82.2658 23.2913 75.2405 25.1336 65.8172C25.3526 64.7036 25.6034 63.5962 25.8856 62.4962C30.1046 63.4027 34.7746 64.0545 39.7656 64.4476C42.6158 68.3422 45.6 71.9219 48.6076 75.0565C47.9684 75.6571 47.3141 76.2423 46.6453 76.8117C42.6488 80.2042 38.6443 82.6112 35.115 83.8218ZM20.258 56.5599C15.2356 54.8926 11.0878 52.7258 8.24483 50.3614C5.68995 48.2369 4.40043 46.1272 4.40043 44.4158C4.40043 40.7732 9.9918 36.1272 19.3177 32.9695C20.4495 32.5866 21.634 32.2251 22.8632 31.886C24.1523 35.9576 25.8429 40.2148 27.8832 44.5197C25.8164 48.8883 24.1016 53.2135 22.8 57.3332C21.9463 57.0956 21.0987 56.8378 20.258 56.5599ZM25.2382 23.6353C23.3025 14.0279 24.588 6.78063 27.8233 4.96168C31.2689 3.02434 38.8885 5.78656 46.9197 12.7122C47.4434 13.1648 47.9587 13.6266 48.4651 14.0974C45.4725 17.2184 42.5157 20.7714 39.6908 24.643C34.8466 25.0791 30.2096 25.7793 25.9463 26.7175C25.6836 25.6962 25.4475 24.6682 25.2382 23.6353ZM69.6678 34.2906C68.6608 32.6014 67.6165 30.9334 66.5356 29.2879C69.8219 29.6915 72.9707 30.2272 75.9275 30.8821C75.0399 33.6455 73.9335 36.5343 72.6311 39.4962C71.6791 37.742 70.6912 36.0065 69.6678 34.2906ZM51.5495 17.1519C53.5789 19.2874 55.6116 21.6713 57.6108 24.2581C53.5552 24.0721 49.4928 24.0713 45.4371 24.2558C47.4383 21.6928 49.4883 19.312 51.5495 17.1519ZM33.3149 34.3195C32.3043 36.0216 31.3348 37.7463 30.4071 39.4923C29.1261 36.541 28.0297 33.6389 27.1345 30.8364C30.0732 30.1979 33.207 29.6759 36.4725 29.2796C35.3795 30.9353 34.3267 32.616 33.3149 34.3195ZM36.5662 59.8555C33.1926 59.4897 30.0116 58.9947 27.0737 58.3734C27.983 55.5209 29.1035 52.557 30.4124 49.5424C31.3437 51.2897 32.3172 53.0155 33.3322 54.7183C34.3758 56.4688 35.4565 58.1835 36.5662 59.8555ZM51.671 71.9805C49.5852 69.7954 47.5051 67.3778 45.4737 64.7778C47.446 64.8528 49.4565 64.8911 51.5 64.8911C53.5994 64.8911 55.6747 64.8454 57.7174 64.7571C55.7117 67.404 53.6867 69.8251 51.671 71.9805ZM72.6725 49.3884C74.0494 52.4363 75.2097 55.3845 76.1311 58.1882C73.1449 58.8501 69.9205 59.3831 66.5231 59.7789C67.6118 58.1028 68.666 56.4058 69.6851 54.689C70.7214 52.9439 71.7174 51.1766 72.6725 49.3884ZM65.8737 52.5539C64.3134 55.1861 62.6655 57.7684 60.9325 60.2966C57.7933 60.5127 54.6471 60.62 51.5 60.6182C48.2945 60.6182 45.1768 60.5213 42.1745 60.3322C40.3961 57.8099 38.7168 55.2231 37.1399 52.5774C35.5703 49.9458 34.1048 47.2572 32.7456 44.5174C34.1013 41.7769 35.5629 39.0871 37.1271 36.4534L37.1267 36.4538C38.6901 33.8194 40.356 31.2437 42.121 28.7322C45.184 28.5071 48.3251 28.3899 51.4996 28.3899C54.6886 28.3899 57.8341 28.5083 60.8963 28.7349C62.6434 31.2427 64.2988 33.8095 65.8592 36.4308C67.4284 39.0587 68.9093 41.7355 70.2995 44.4568C68.9235 47.2059 67.4473 49.9067 65.8737 52.5539ZM74.9506 4.83391C78.3995 6.76578 79.7409 14.5562 77.5739 24.7723C77.4349 25.4246 77.2807 26.0876 77.1112 26.7613C72.8375 25.8031 68.1973 25.0908 63.339 24.6481C60.5089 20.7339 57.5762 17.1754 54.6322 14.0947C55.4038 13.3724 56.1937 12.6689 57.0012 11.9846C64.6055 5.55797 71.7125 3.02043 74.9506 4.83391ZM51.5 35.4832C56.5796 35.4832 60.6976 39.4825 60.6976 44.4158C60.6976 49.349 56.5796 53.3483 51.5 53.3483C46.4204 53.3483 42.3024 49.349 42.3024 44.4158C42.3024 39.4825 46.4204 35.4832 51.5 35.4832Z" fill="#272727" stroke="#191919" stroke-width="2" mask="url(#path-1-inside-1_473_5)"/>
</svg>
