<svg width="35" height="35" viewBox="0 0 35 35" fill="none" xmlns="http://www.w3.org/2000/svg">
<mask id="mask0_652_44" style="mask-type:luminance" maskUnits="userSpaceOnUse" x="0" y="0" width="35" height="35">
<path d="M0 0H35V35H0V0Z" fill="white"/>
</mask>
<g mask="url(#mask0_652_44)">
<path d="M24.2524 24.1542C25.5431 24.02 26.5231 22.8957 26.4793 21.5467C26.4575 20.8983 26.1857 20.2835 25.7209 19.831C25.2561 19.3784 24.6343 19.1231 23.9856 19.1186H23.8952C22.5141 19.1623 21.4452 20.3319 21.4889 21.7261C21.5356 22.4013 21.8024 22.9846 22.2035 23.3886C20.6883 26.403 18.3724 28.605 14.8972 30.4484C12.5377 31.7084 10.0877 32.1575 7.63911 31.8425C5.6339 31.5728 4.07495 30.673 3.09495 29.1898C1.67015 26.9878 1.53745 24.6034 2.73911 22.2205C3.58495 20.5128 4.92224 19.2528 5.76807 18.6242C5.53869 17.8692 5.34548 17.1037 5.18911 16.3303C-1.26985 21.0523 -0.600471 27.4369 1.35661 30.4498C2.82661 32.6986 5.81036 34.0928 9.10765 34.0928C10.0078 34.0981 10.9051 33.9923 11.7793 33.7778C17.4814 32.6548 21.801 29.2365 24.251 24.1557M32.0895 18.5805C28.7047 14.5788 23.7158 12.3753 18.0152 12.3753H17.302C17.0985 11.9708 16.787 11.6306 16.4018 11.3925C16.0167 11.1543 15.5731 11.0276 15.1204 11.0263H15.0299C13.6504 11.0715 12.5799 12.2411 12.6252 13.6353C12.6689 14.9842 13.7831 16.0619 15.1189 16.0619H15.2093C15.6798 16.0377 16.134 15.8816 16.5198 15.6113C16.9056 15.341 17.2076 14.9675 17.391 14.5336H18.1931C21.5779 14.5336 24.7847 15.5223 27.6795 17.4561C29.9064 18.9407 31.5106 20.873 32.4002 23.2121C33.1585 25.0992 33.1147 26.9425 32.3127 28.5175C31.0643 30.9005 28.9716 32.2042 26.2095 32.2042C24.4289 32.2042 22.7358 31.6646 21.8447 31.2592C21.2037 31.8313 20.535 32.3715 19.841 32.878C21.7558 33.7778 23.7158 34.2721 25.5868 34.2721C29.8627 34.2721 33.0243 31.8892 34.2274 29.5063C35.5181 26.8988 35.4291 22.4028 32.0895 18.5805ZM9.46494 24.9184C9.50869 26.2673 10.6229 27.3465 11.9587 27.3465H12.0477C13.4287 27.3028 14.4977 26.1332 14.4539 24.739C14.4321 24.0906 14.1603 23.4758 13.6955 23.0232C13.2307 22.5707 12.6089 22.3154 11.9602 22.3109H11.8697C11.7638 22.3025 11.6572 22.3175 11.5577 22.3546C9.73182 19.298 8.97495 15.9715 9.24182 12.3738C9.41974 9.67588 10.3108 7.33817 11.8697 5.40442C13.1618 3.74192 15.6556 2.93255 17.3487 2.88734C22.0693 2.79692 24.0731 8.73234 24.2072 11.1153C24.7862 11.2494 25.7662 11.5644 26.4341 11.789C25.8989 4.50609 21.4466 0.729004 17.1693 0.729004C13.1618 0.729004 9.46495 3.6515 7.99494 7.96817C5.94599 13.7228 7.28182 19.2528 9.77703 23.6146C9.5539 23.9296 9.41974 24.424 9.46494 24.9184Z" fill="#272727"/>
</g>
</svg>
