<svg width="28" height="28" viewBox="0 0 28 28" fill="none" xmlns="http://www.w3.org/2000/svg">
<path id="Vector" d="M22.4013 14C22.4013 12.0586 20.977 10.3961 18.9555 9.69609L17.879 11.8508C18.8898 12.2008 19.5987 13.032 19.5987 14.0055C19.5987 14.9734 18.8898 15.8047 17.879 16.1602L18.9555 18.3148C20.977 17.6039 22.4013 15.9414 22.4013 14ZM21.1083 5.38672L20.0319 7.54141C23.0708 8.59687 25.2039 11.0906 25.2039 14C25.2039 16.9148 23.0708 19.4031 20.0319 20.4586L21.1083 22.6133C25.158 21.2078 28 17.8828 28 14C28 10.1172 25.158 6.79219 21.1083 5.38672ZM0 8.16484V19.8297H5.59869L15.398 28V0L5.59869 8.16484H0Z" fill="white"/>
</svg>
