<svg width="45" height="33" viewBox="0 0 35 20" fill="none" xmlns="http://www.w3.org/2000/svg">
<path d="M17.5 0C12.8333 0 9.91667 2.22222 8.75 6.66667C10.5 4.44444 12.5417 3.61111 14.875 4.16667C16.2059 4.48319 17.1574 5.40336 18.2103 6.42157C19.9279 8.08123 21.9118 10 26.25 10C30.9167 10 33.8333 7.77778 35 3.33333C33.25 5.55556 31.2083 6.38889 28.875 5.83333C27.5426 5.51681 26.5926 4.59664 25.5368 3.57843C23.8235 1.91877 21.8382 0 17.5 0ZM8.75 10C4.08333 10 1.16667 12.2222 0 16.6667C1.75 14.4444 3.79167 13.6111 6.125 14.1667C7.45588 14.4832 8.40735 15.4034 9.46176 16.4216C11.1765 18.0812 13.1618 20 17.5 20C22.1667 20 25.0833 17.7778 26.25 13.3333C24.5 15.5556 22.4583 16.3889 20.125 15.8333C18.7926 15.5168 17.8426 14.5966 16.7868 13.5784C15.0735 11.9188 13.0882 10 8.75 10Z" fill="#272727"/>
</svg>
