<svg width="35" height="35" viewBox="0 0 103 93" fill="none" xmlns="http://www.w3.org/2000/svg">
<path d="M21.5347 28.002C19.8581 19.8317 19.498 13.5652 20.5819 9.01503C21.2265 6.30873 22.4045 4.10099 24.1966 2.50786C26.0884 0.826182 28.4799 0.000908033 31.1676 0.000908033C35.6006 0.000908033 40.2614 2.03276 45.2416 5.89226C47.2734 7.46679 49.3817 9.36439 51.5712 11.5863C51.7459 11.3611 51.9426 11.1484 52.1623 10.9515C58.3527 5.40785 63.5647 1.9628 68.0227 0.634925C70.6733 -0.15517 73.1618 -0.230379 75.4278 0.536264C77.8201 1.34496 79.726 3.01775 81.0711 5.36013C83.2904 9.2261 83.8754 14.3059 83.0482 20.5786C82.711 23.1353 82.1345 25.92 81.3197 28.9377C81.6271 28.9749 81.9353 29.0436 82.2403 29.1451C90.0944 31.7612 95.6564 34.5739 99.0237 37.7888C101.027 39.7014 102.335 41.8307 102.809 44.188C103.307 46.676 102.821 49.1712 101.478 51.512C99.2622 55.3727 95.1889 58.417 89.3863 60.8286C87.0567 61.797 84.4202 62.674 81.4746 63.4629C81.609 63.7678 81.7136 64.0916 81.7832 64.4313C83.4598 72.6015 83.8195 78.8681 82.736 83.4183C82.0914 86.1246 80.9129 88.3323 79.1209 89.9254C77.2295 91.6071 74.8376 92.4324 72.1503 92.4324C67.7169 92.4324 63.0565 90.4005 58.0763 86.541C56.0228 84.9495 53.8911 83.0285 51.6762 80.7758C51.4432 81.1421 51.1611 81.4744 50.8378 81.7633C44.6473 87.3077 39.4353 90.7519 34.9774 92.0802C32.3267 92.8703 29.8382 92.9455 27.5722 92.1789C25.1799 91.3702 23.274 89.6974 21.929 87.355C19.7096 83.489 19.1246 78.4092 19.9518 72.1366C20.3015 69.4877 20.9078 66.5934 21.7696 63.4491C21.4261 63.4142 21.0874 63.3414 20.7597 63.232C12.9056 60.6159 7.3436 57.8032 3.97638 54.5883C1.97271 52.6757 0.664691 50.5464 0.191535 48.1891C-0.307372 45.7011 0.179464 43.2055 1.52249 40.8647C3.73779 37.0044 7.81112 33.9597 13.6137 31.5485C16.0129 30.551 18.7372 29.6509 21.7893 28.8438C21.6793 28.5716 21.594 28.2898 21.5347 28.002Z" fill="#191919"/>
<path d="M77.0425 64.9526C77.4173 64.8858 77.8034 64.9666 78.1206 65.1781C78.4378 65.3897 78.6619 65.7158 78.7464 66.0888L78.7556 66.1341L78.8389 66.5688C81.5387 80.8328 79.6369 87.9648 73.1337 87.9648C66.7713 87.9648 58.6719 81.879 48.8354 69.7073C48.6606 69.491 48.5497 69.2297 48.5153 68.9533C48.4809 68.6768 48.5244 68.3961 48.6408 68.1432C48.7572 67.8903 48.9418 67.6753 49.1737 67.5225C49.4056 67.3698 49.6755 67.2855 49.9527 67.2792H49.9985L50.5167 67.2829C54.6561 67.3055 58.68 67.1605 62.5887 66.8478C67.2022 66.4785 72.0201 65.8467 77.0425 64.9526ZM32.3819 54.1703L32.4069 54.2127L32.6668 54.6684C34.7496 58.3076 36.9195 61.7616 39.1767 65.0306C41.8354 68.88 44.8248 72.7771 48.1449 76.722C48.3914 77.0147 48.516 77.3917 48.4928 77.7745C48.4697 78.1572 48.3005 78.5163 48.0206 78.7769L47.9832 78.8104L47.6492 79.0995C36.6626 88.5602 29.5218 90.4488 26.2269 84.7652C23.0014 79.2025 24.1707 69.0875 29.7349 54.4202C29.8334 54.1603 30.0023 53.9333 30.2226 53.765C30.4428 53.5967 30.7056 53.4937 30.981 53.4676C31.2565 53.4416 31.5338 53.4937 31.7813 53.6178C32.0289 53.742 32.237 53.9334 32.3819 54.1703ZM82.6173 33.1223L82.6624 33.1373L83.076 33.2804C96.6369 38.0216 101.789 43.2316 98.5325 48.9105C95.3475 54.4649 86.0881 58.5089 70.7542 61.0426C70.4763 61.0885 70.1911 61.054 69.9321 60.9429C69.673 60.8318 69.4508 60.6489 69.2915 60.4155C69.1322 60.182 69.0424 59.9078 69.0326 59.6249C69.0228 59.3421 69.0934 59.0622 69.2362 58.8182C71.4325 55.0637 73.4105 51.328 75.1704 47.6109C77.166 43.3955 79.0389 38.8708 80.7891 34.037C80.9162 33.6856 81.1702 33.3952 81.5005 33.2233C81.8308 33.0514 82.2134 33.0106 82.5723 33.109L82.6173 33.1223ZM34.7155 30.7355C34.8833 30.8345 35.0301 30.9659 35.1474 31.1219C35.2648 31.278 35.3503 31.4558 35.3993 31.6451C35.4482 31.8344 35.4596 32.0316 35.4327 32.2253C35.4058 32.419 35.3412 32.6056 35.2426 32.7742C33.0458 36.5284 31.0676 40.2642 29.308 43.9815C27.3124 48.1967 25.4395 52.7214 23.6893 57.5555C23.5593 57.9144 23.2971 58.2095 22.9569 58.3797C22.6166 58.5499 22.2243 58.5823 21.861 58.4701L21.816 58.4551L21.4024 58.3116C7.84149 53.5707 2.68935 48.3609 5.94592 42.6819C9.13087 37.1275 18.3903 33.0834 33.7241 30.5495C34.0661 30.4929 34.417 30.5588 34.7155 30.7355ZM78.2515 7.3848C81.477 12.9478 80.3076 23.063 74.7435 37.7303C74.645 37.9902 74.476 38.2171 74.2558 38.3854C74.0355 38.5538 73.7728 38.6568 73.4973 38.6828C73.2218 38.7088 72.9446 38.6568 72.697 38.5326C72.4494 38.4084 72.2414 38.2171 72.0965 37.9802L72.0715 37.9377L71.8116 37.482C69.7288 33.8429 67.5588 30.3888 65.3017 27.1198C62.643 23.2704 59.6536 19.3733 56.3334 15.4285C56.087 15.1357 55.9624 14.7587 55.9855 14.376C56.0087 13.9932 56.1778 13.6342 56.4578 13.3736L56.4952 13.34L56.8291 13.0509C67.8158 3.59053 74.9566 1.70182 78.2515 7.3848ZM31.9007 4C38.2634 4 46.3628 10.0857 56.199 22.2571C56.3738 22.4734 56.4847 22.7347 56.5191 23.0112C56.5535 23.2877 56.51 23.5683 56.3936 23.8212C56.2772 24.0741 56.0926 24.2892 55.8607 24.4419C55.6288 24.5946 55.3589 24.6789 55.0817 24.6852H55.0359L54.5177 24.682C50.3786 24.6593 46.3548 24.8044 42.4461 25.1171C37.8321 25.4864 33.014 26.1181 27.9919 27.0122C27.6171 27.0789 27.2312 26.9981 26.914 26.7866C26.5969 26.575 26.3729 26.249 26.2884 25.876L26.2788 25.8303L26.1955 25.3961C23.4955 11.132 25.3972 4 31.9007 4Z" fill="#272727"/>
</svg>
