<svg width="37" height="35" viewBox="0 0 37 32" fill="none" xmlns="http://www.w3.org/2000/svg">
<path d="M1 6.2941H2.75005ZM2.75005 6.2941L10.55 26.5741C11.6875 29.5335 12.2563 31.0123 13.2188 30.9999C14.1814 30.9876 14.7116 29.4929 15.7757 26.5035L15.8754 26.2229M2.75005 6.2941H8.87522ZM8.87522 6.2941H10.55ZM8.87522 6.2941L15.8754 26.2246ZM15.8754 26.2246L19.9285 15.1176ZM15.0004 6.2941H16.7504ZM16.7504 6.2941L24.5504 26.5741C25.6879 29.5335 26.2584 31.0123 27.2192 30.9999C28.18 30.9876 28.712 29.4929 29.776 26.5035L29.8758 26.2229M16.7504 6.2941H22.8756ZM22.8756 6.2941H24.5504ZM22.8756 6.2941L29.8758 26.2246ZM29.8758 26.2246L33.4266 16.2541ZM33.4266 16.2541L35.1924 12.0011C35.8968 10.0431 36.1453 7.94796 35.9187 5.87763C35.644 3.39646 34.5274 1 31.6258 1C28.9343 1 27.6182 4.04058 29.3315 6.10705C32.0966 9.4388 34.5519 13.1323 33.4266 16.2541Z" fill="#272727"/>
<path d="M1 6.2941H2.75005M2.75005 6.2941L10.55 26.5741C11.6875 29.5335 12.2563 31.0123 13.2188 30.9999C14.1814 30.9876 14.7116 29.4929 15.7757 26.5035L15.8754 26.2229M2.75005 6.2941H8.87522M8.87522 6.2941H10.55M8.87522 6.2941L15.8754 26.2246L19.9285 15.1176M15.0004 6.2941H16.7504M16.7504 6.2941L24.5504 26.5741C25.6879 29.5335 26.2584 31.0123 27.2192 30.9999C28.18 30.9876 28.712 29.4929 29.776 26.5035L29.8758 26.2229M16.7504 6.2941H22.8756M22.8756 6.2941H24.5504M22.8756 6.2941L29.8758 26.2246L33.4266 16.2541M33.4266 16.2541L35.1924 12.0011C35.8968 10.0431 36.1453 7.94796 35.9187 5.87763C35.644 3.39646 34.5274 1 31.6258 1C28.9343 1 27.6182 4.04058 29.3315 6.10705C32.0966 9.4388 34.5519 13.1323 33.4266 16.2541Z" stroke="#272727" stroke-width="1.5" stroke-linecap="round" stroke-linejoin="round"/>
</svg>
